<svg version="1.1" xmlns="http://www.w3.org/2000/svg" xmlns:xlink="http://www.w3.org/1999/xlink" width="600" height="600" style="width: 600px; height: 600px;"><defs><clipPath id="ZMkoBhgRKEmd"><path fill="none" stroke="none" d=" M 48 27 L 570 27 L 570 555 L 48 555 L 48 27 Z"/></clipPath><clipPath id="IaJTURVOdAHk"><path fill="none" stroke="none" d=" M 48 27 L 570 27 L 570 555 L 48 555 L 48 27 Z"/></clipPath></defs><g><g transform="scale(1,1) translate(0.5,0.5)"><rect fill="#FFFFFF" stroke="none" x="0" y="0" width="600" height="600"/><rect fill="#ffffff" stroke="none" x="0" y="0" width="600" height="600"/><rect fill="#FFFFFF" stroke="none" x="48" y="27" width="522" height="528"/><rect fill="#ffffff" stroke="none" x="48" y="27" width="522" height="528"/><g><rect fill="none" stroke="#e5e5e5" x="48" y="27" width="522" height="528" stroke-linejoin="bevel" stroke-miterlimit="10"/></g><g clip-path="url(#ZMkoBhgRKEmd)"><g><g><path fill="none" stroke="#e5e5e5" paint-order="fill stroke markers" d=" M 72 555 L 72 27" stroke-linejoin="bevel" stroke-miterlimit="10"/><path fill="none" stroke="#e5e5e5" paint-order="fill stroke markers" d=" M 190 555 L 190 27" stroke-linejoin="bevel" stroke-miterlimit="10"/><path fill="none" stroke="#e5e5e5" paint-order="fill stroke markers" d=" M 309 555 L 309 27" stroke-linejoin="bevel" stroke-miterlimit="10"/><path fill="none" stroke="#e5e5e5" paint-order="fill stroke markers" d=" M 428 555 L 428 27" stroke-linejoin="bevel" stroke-miterlimit="10"/><path fill="none" stroke="#e5e5e5" paint-order="fill stroke markers" d=" M 546 555 L 546 27" stroke-linejoin="bevel" stroke-miterlimit="10"/></g><g><path fill="none" stroke="#e5e5e5" paint-order="fill stroke markers" d=" M 48 496 L 570 496" stroke-linejoin="bevel" stroke-miterlimit="10"/><path fill="none" stroke="#e5e5e5" paint-order="fill stroke markers" d=" M 48 349 L 570 349" stroke-linejoin="bevel" stroke-miterlimit="10"/><path fill="none" stroke="#e5e5e5" paint-order="fill stroke markers" d=" M 48 202 L 570 202" stroke-linejoin="bevel" stroke-miterlimit="10"/><path fill="none" stroke="#e5e5e5" paint-order="fill stroke markers" d=" M 48 55 L 570 55" stroke-linejoin="bevel" stroke-miterlimit="10"/></g><g><path fill="none" stroke="none"/><path fill="none" stroke="#FF0000" paint-order="fill stroke markers" d=" M 71.72727272727275 349.19827846137434 L 95.4545454545455 309.1371837807567 L 119.18181818181819 268.8638112161466 L 142.90909090909093 229.3642913944862 L 166.63636363636363 191.73518197628607 L 190.36363636363637 157.14452901418775 L 214.09090909090912 126.78861895412899 L 237.81818181818187 101.84611228487563 L 261.54545454545456 83.43136913963599 L 285.27272727272725 72.5488244625958 L 309 70.05024363663745 L 332.72727272727275 76.59658964018604 L 356.4545454545455 92.62606369097023 L 380.18181818181813 118.3296495371344 L 403.909090909091 153.63520616953616 L 427.6363636363636 198.20082599318323 L 451.3636363636364 251.41781834590103 L 475.0909090909091 312.42330580463397 L 498.81818181818176 380.1220477098803 L 522.5454545454546 453.21674653519096 L 546.2727272727273 530.2457623453328" stroke-linejoin="bevel" stroke-miterlimit="10" stroke-width="2"/></g><g><path fill="none" stroke="none"/><path fill="none" stroke="#00FF00" paint-order="fill stroke markers" d=" M 71.72727272727275 349.19827846137434 L 95.4545454545455 309.53757579833433 L 119.18181818181819 269.23733410666324 L 142.90909090909093 229.19064135157618 L 166.63636363636363 190.43140766696837 L 190.36363636363637 154.10051384097937 L 214.09090909090912 121.40617793667582 L 237.81818181818187 93.58005608353369 L 261.54545454545456 71.83077803662798 L 285.27272727272725 57.296736835878505 L 309 51 L 332.72727272727275 53.80318555388624 L 356.4545454545455 66.37105167245136 L 380.18181818181813 89.13838959348334 L 403.909090909091 122.28559638048705 L 427.6363636363636 165.723055320419 L 451.3636363636364 219.08520050811984 L 475.0909090909091 281.7349603680514 L 498.81818181818176 352.77935618369804 L 522.5454545454546 431.09804497015733 L 546.2727272727273 515.3916516894616" stroke-linejoin="bevel" stroke-miterlimit="10" stroke-width="2"/></g><g><path fill="none" stroke="none"/><path fill="none" stroke="#0000FF" paint-order="fill stroke markers" d=" M 71.72727272727275 349.19827846137434 L 95.4545454545455 309.108681692132 L 119.18181818181819 268.79313508441896 L 142.90909090909093 229.24143563804915 L 166.63636363636363 191.55488861676406 L 190.36363636363637 156.90705738448855 L 214.09090909090912 126.50016748532312 L 237.81818181818187 101.51886623574865 L 261.54545454545456 83.08315997305601 L 285.27272727272725 72.2023989076356 L 309 69.73215218173414 L 332.72727272727275 76.3357139790204 L 356.4545454545455 92.45180879409236 L 380.18181818181813 118.26982603468821 L 403.909090909091 153.71361834023486 L 427.6363636363636 198.43455166224686 L 451.3636363636364 251.8141017087791 L 475.0909090909091 312.97583987413395 L 498.81818181818176 380.8060826287885 L 522.5454545454546 453.98154857246675 L 546.2727272727273 530.9999999999999" stroke-linejoin="bevel" stroke-miterlimit="10" stroke-width="2"/></g><g><path fill="none" stroke="none"/><path fill="none" stroke="#FF00FF" paint-order="fill stroke markers" d=" M 71.72727272727275 349.19827846137434 L 95.4545454545455 309.1372136161252 L 119.18181818181819 268.86386715654913 L 142.90909090909093 229.36437142211292 L 166.63636363636363 191.73528525181206 L 190.36363636363637 157.1446555880454 L 214.09090909090912 126.78876972133662 L 237.81818181818187 101.84628919921147 L 261.54545454545456 83.43157572069379 L 285.27272727272725 72.54906665400972 L 309 70.05053111537302 L 332.72727272727275 76.59693775322239 L 356.4545454545455 92.6264963438698 L 380.18181818181813 118.33020366199798 L 403.909090909091 153.63593906122765 L 427.6363636363636 198.20182837209381 L 451.3636363636364 251.41924015453873 L 475.0909090909091 312.42541439951503 L 498.81818181818176 380.1253851194795 L 522.5454545454546 453.22268668577055 L 546.2727272727273 530.259702552627" stroke-linejoin="bevel" stroke-miterlimit="10" stroke-width="2"/></g></g></g><g clip-path="url(#IaJTURVOdAHk)"><g><g/><g><path fill="#ffffff" stroke="#e5e5e5" paint-order="fill stroke markers" d=" M 380.03125 37 L 560 37 L 560 146 L 380.03125 146 L 380.03125 37 Z" fill-opacity="0.95" stroke-linejoin="bevel" stroke-miterlimit="10" stroke-opacity="0.5"/><text fill="#444444" stroke="none" font-family="helvetica" font-size="10pt" font-style="normal" font-weight="normal" text-decoration="normal" x="415.03125" y="57" text-anchor="start" dominant-baseline="central">Exact solution</text><g><path fill="none" stroke="#FF0000" paint-order="fill stroke markers" d=" M 390.03125 57 L 410.03125 57" stroke-linejoin="bevel" stroke-miterlimit="10" stroke-width="2"/></g><text fill="#444444" stroke="none" font-family="helvetica" font-size="10pt" font-style="normal" font-weight="normal" text-decoration="normal" x="415.03125" y="80" text-anchor="start" dominant-baseline="central">Euler method</text><g><path fill="none" stroke="#00FF00" paint-order="fill stroke markers" d=" M 390.03125 80 L 410.03125 80" stroke-linejoin="bevel" stroke-miterlimit="10" stroke-width="2"/></g><text fill="#444444" stroke="none" font-family="helvetica" font-size="10pt" font-style="normal" font-weight="normal" text-decoration="normal" x="415.03125" y="103" text-anchor="start" dominant-baseline="central">Improved Euler method</text><g><path fill="none" stroke="#0000FF" paint-order="fill stroke markers" d=" M 390.03125 103 L 410.03125 103" stroke-linejoin="bevel" stroke-miterlimit="10" stroke-width="2"/></g><text fill="#444444" stroke="none" font-family="helvetica" font-size="10pt" font-style="normal" font-weight="normal" text-decoration="normal" x="415.03125" y="126" text-anchor="start" dominant-baseline="central">Runge-Kutta method</text><g><path fill="none" stroke="#FF00FF" paint-order="fill stroke markers" d=" M 390.03125 126 L 410.03125 126" stroke-linejoin="bevel" stroke-miterlimit="10" stroke-width="2"/></g></g></g></g><g><g fill="#444444"><path fill="none" stroke="black" paint-order="fill stroke markers" d=" M 48 555 L 570 555" stroke-linejoin="bevel" stroke-miterlimit="10"/><path fill="none" stroke="black" paint-order="fill stroke markers" d=" M 72 561 L 72 553" stroke-linejoin="bevel" stroke-miterlimit="10"/><path fill="none" stroke="black" paint-order="fill stroke markers" d=" M 190 561 L 190 553" stroke-linejoin="bevel" stroke-miterlimit="10"/><path fill="none" stroke="black" paint-order="fill stroke markers" d=" M 309 561 L 309 553" stroke-linejoin="bevel" stroke-miterlimit="10"/><path fill="none" stroke="black" paint-order="fill stroke markers" d=" M 428 561 L 428 553" stroke-linejoin="bevel" stroke-miterlimit="10"/><path fill="none" stroke="black" paint-order="fill stroke markers" d=" M 546 561 L 546 553" stroke-linejoin="bevel" stroke-miterlimit="10"/><path fill="none" stroke="black" paint-order="fill stroke markers" d=" M 48 559 L 48 555" stroke-linejoin="bevel" stroke-miterlimit="10"/><path fill="none" stroke="black" paint-order="fill stroke markers" d=" M 72 559 L 72 555" stroke-linejoin="bevel" stroke-miterlimit="10"/><path fill="none" stroke="black" paint-order="fill stroke markers" d=" M 95 559 L 95 555" stroke-linejoin="bevel" stroke-miterlimit="10"/><path fill="none" stroke="black" paint-order="fill stroke markers" d=" M 119 559 L 119 555" stroke-linejoin="bevel" stroke-miterlimit="10"/><path fill="none" stroke="black" paint-order="fill stroke markers" d=" M 143 559 L 143 555" stroke-linejoin="bevel" stroke-miterlimit="10"/><path fill="none" stroke="black" paint-order="fill stroke markers" d=" M 167 559 L 167 555" stroke-linejoin="bevel" stroke-miterlimit="10"/><path fill="none" stroke="black" paint-order="fill stroke markers" d=" M 190 559 L 190 555" stroke-linejoin="bevel" stroke-miterlimit="10"/><path fill="none" stroke="black" paint-order="fill stroke markers" d=" M 214 559 L 214 555" stroke-linejoin="bevel" stroke-miterlimit="10"/><path fill="none" stroke="black" paint-order="fill stroke markers" d=" M 238 559 L 238 555" stroke-linejoin="bevel" stroke-miterlimit="10"/><path fill="none" stroke="black" paint-order="fill stroke markers" d=" M 262 559 L 262 555" stroke-linejoin="bevel" stroke-miterlimit="10"/><path fill="none" stroke="black" paint-order="fill stroke markers" d=" M 285 559 L 285 555" stroke-linejoin="bevel" stroke-miterlimit="10"/><path fill="none" stroke="black" paint-order="fill stroke markers" d=" M 309 559 L 309 555" stroke-linejoin="bevel" stroke-miterlimit="10"/><path fill="none" stroke="black" paint-order="fill stroke markers" d=" M 333 559 L 333 555" stroke-linejoin="bevel" stroke-miterlimit="10"/><path fill="none" stroke="black" paint-order="fill stroke markers" d=" M 356 559 L 356 555" stroke-linejoin="bevel" stroke-miterlimit="10"/><path fill="none" stroke="black" paint-order="fill stroke markers" d=" M 380 559 L 380 555" stroke-linejoin="bevel" stroke-miterlimit="10"/><path fill="none" stroke="black" paint-order="fill stroke markers" d=" M 404 559 L 404 555" stroke-linejoin="bevel" stroke-miterlimit="10"/><path fill="none" stroke="black" paint-order="fill stroke markers" d=" M 428 559 L 428 555" stroke-linejoin="bevel" stroke-miterlimit="10"/><path fill="none" stroke="black" paint-order="fill stroke markers" d=" M 451 559 L 451 555" stroke-linejoin="bevel" stroke-miterlimit="10"/><path fill="none" stroke="black" paint-order="fill stroke markers" d=" M 475 559 L 475 555" stroke-linejoin="bevel" stroke-miterlimit="10"/><path fill="none" stroke="black" paint-order="fill stroke markers" d=" M 499 559 L 499 555" stroke-linejoin="bevel" stroke-miterlimit="10"/><path fill="none" stroke="black" paint-order="fill stroke markers" d=" M 523 559 L 523 555" stroke-linejoin="bevel" stroke-miterlimit="10"/><path fill="none" stroke="black" paint-order="fill stroke markers" d=" M 546 559 L 546 555" stroke-linejoin="bevel" stroke-miterlimit="10"/><path fill="" stroke="black" paint-order="fill stroke markers" d=" M 570 559 L 570 555" stroke-linejoin="bevel" stroke-miterlimit="10"/><g transform="translate(72,566) rotate(0,0,0)"><text fill="" stroke="none" font-family="helvetica" font-size="8pt" font-style="normal" font-weight="normal" text-decoration="normal" x="0" y="0" text-anchor="middle" dominant-baseline="hanging">1</text><g transform="rotate(0,0,0) translate(-72,-566) translate(190,566) rotate(0,0,0)"><text fill="" stroke="none" font-family="helvetica" font-size="8pt" font-style="normal" font-weight="normal" text-decoration="normal" x="0" y="0" text-anchor="middle" dominant-baseline="hanging">1.5</text><g transform="rotate(0,0,0) translate(-190,-566) translate(309,566) rotate(0,0,0)"><text fill="" stroke="none" font-family="helvetica" font-size="8pt" font-style="normal" font-weight="normal" text-decoration="normal" x="0" y="0" text-anchor="middle" dominant-baseline="hanging">2</text><g transform="rotate(0,0,0) translate(-309,-566) translate(428,566) rotate(0,0,0)"><text fill="" stroke="none" font-family="helvetica" font-size="8pt" font-style="normal" font-weight="normal" text-decoration="normal" x="0" y="0" text-anchor="middle" dominant-baseline="hanging">2.5</text><g transform="rotate(0,0,0) translate(-428,-566) translate(546,566) rotate(0,0,0)"><text fill="" stroke="none" font-family="helvetica" font-size="8pt" font-style="normal" font-weight="normal" text-decoration="normal" x="0" y="0" text-anchor="middle" dominant-baseline="hanging">3</text><g transform="rotate(0,0,0) translate(-546,-566) translate(309,584) rotate(0,0,0)"><text fill="" stroke="none" font-family="helvetica" font-size="10pt" font-style="italic" font-weight="normal" text-decoration="normal" x="0" y="0" text-anchor="middle" dominant-baseline="hanging">x</text><g transform="rotate(0,0,0) translate(-309,-584)"/></g></g></g></g></g></g></g><g fill="#444444"><path fill="none" stroke="black" paint-order="fill stroke markers" d=" M 48 555 L 48 27" stroke-linejoin="bevel" stroke-miterlimit="10"/><path fill="none" stroke="black" paint-order="fill stroke markers" d=" M 42 496 L 50 496" stroke-linejoin="bevel" stroke-miterlimit="10"/><path fill="none" stroke="black" paint-order="fill stroke markers" d=" M 42 349 L 50 349" stroke-linejoin="bevel" stroke-miterlimit="10"/><path fill="none" stroke="black" paint-order="fill stroke markers" d=" M 42 202 L 50 202" stroke-linejoin="bevel" stroke-miterlimit="10"/><path fill="none" stroke="black" paint-order="fill stroke markers" d=" M 42 55 L 50 55" stroke-linejoin="bevel" stroke-miterlimit="10"/><path fill="none" stroke="black" paint-order="fill stroke markers" d=" M 44 525 L 48 525" stroke-linejoin="bevel" stroke-miterlimit="10"/><path fill="none" stroke="black" paint-order="fill stroke markers" d=" M 44 555 L 48 555" stroke-linejoin="bevel" stroke-miterlimit="10"/><path fill="none" stroke="black" paint-order="fill stroke markers" d=" M 44 496 L 48 496" stroke-linejoin="bevel" stroke-miterlimit="10"/><path fill="none" stroke="black" paint-order="fill stroke markers" d=" M 44 467 L 48 467" stroke-linejoin="bevel" stroke-miterlimit="10"/><path fill="none" stroke="black" paint-order="fill stroke markers" d=" M 44 437 L 48 437" stroke-linejoin="bevel" stroke-miterlimit="10"/><path fill="none" stroke="black" paint-order="fill stroke markers" d=" M 44 408 L 48 408" stroke-linejoin="bevel" stroke-miterlimit="10"/><path fill="none" stroke="black" paint-order="fill stroke markers" d=" M 44 379 L 48 379" stroke-linejoin="bevel" stroke-miterlimit="10"/><path fill="none" stroke="black" paint-order="fill stroke markers" d=" M 44 349 L 48 349" stroke-linejoin="bevel" stroke-miterlimit="10"/><path fill="none" stroke="black" paint-order="fill stroke markers" d=" M 44 320 L 48 320" stroke-linejoin="bevel" stroke-miterlimit="10"/><path fill="none" stroke="black" paint-order="fill stroke markers" d=" M 44 290 L 48 290" stroke-linejoin="bevel" stroke-miterlimit="10"/><path fill="none" stroke="black" paint-order="fill stroke markers" d=" M 44 261 L 48 261" stroke-linejoin="bevel" stroke-miterlimit="10"/><path fill="none" stroke="black" paint-order="fill stroke markers" d=" M 44 232 L 48 232" stroke-linejoin="bevel" stroke-miterlimit="10"/><path fill="none" stroke="black" paint-order="fill stroke markers" d=" M 44 202 L 48 202" stroke-linejoin="bevel" stroke-miterlimit="10"/><path fill="none" stroke="black" paint-order="fill stroke markers" d=" M 44 173 L 48 173" stroke-linejoin="bevel" stroke-miterlimit="10"/><path fill="none" stroke="black" paint-order="fill stroke markers" d=" M 44 144 L 48 144" stroke-linejoin="bevel" stroke-miterlimit="10"/><path fill="none" stroke="black" paint-order="fill stroke markers" d=" M 44 114 L 48 114" stroke-linejoin="bevel" stroke-miterlimit="10"/><path fill="none" stroke="black" paint-order="fill stroke markers" d=" M 44 85 L 48 85" stroke-linejoin="bevel" stroke-miterlimit="10"/><path fill="" stroke="black" paint-order="fill stroke markers" d=" M 44 55 L 48 55" stroke-linejoin="bevel" stroke-miterlimit="10"/><g transform="translate(37,496) rotate(0,0,0)"><text fill="" stroke="none" font-family="helvetica" font-size="8pt" font-style="normal" font-weight="normal" text-decoration="normal" x="0" y="0" text-anchor="end" dominant-baseline="central">0.5</text><g transform="rotate(0,0,0) translate(-37,-496) translate(37,349) rotate(0,0,0)"><text fill="" stroke="none" font-family="helvetica" font-size="8pt" font-style="normal" font-weight="normal" text-decoration="normal" x="0" y="0" text-anchor="end" dominant-baseline="central">1</text><g transform="rotate(0,0,0) translate(-37,-349) translate(37,202) rotate(0,0,0)"><text fill="" stroke="none" font-family="helvetica" font-size="8pt" font-style="normal" font-weight="normal" text-decoration="normal" x="0" y="0" text-anchor="end" dominant-baseline="central">1.5</text><g transform="rotate(0,0,0) translate(-37,-202) translate(37,55) rotate(0,0,0)"><text fill="" stroke="none" font-family="helvetica" font-size="8pt" font-style="normal" font-weight="normal" text-decoration="normal" x="0" y="0" text-anchor="end" dominant-baseline="central">2</text><g transform="rotate(0,0,0) translate(-37,-55) translate(15,291) rotate(-90,0,0)"><text fill="" stroke="none" font-family="helvetica" font-size="10pt" font-style="italic" font-weight="normal" text-decoration="normal" x="0" y="0" text-anchor="middle" dominant-baseline="alphabetic">y</text><g transform="rotate(90,0,0) translate(-15,-291)"/></g></g></g></g></g></g><g fill="#444444"><path fill="" stroke="none" d=""/><g transform="translate(48,22)"><path fill="none" stroke="none"/><text fill="" stroke="none" font-family="helvetica" font-size="10pt" font-style="normal" font-weight="bold" text-decoration="normal" x="0" y="0" text-anchor="start" dominant-baseline="text-after-edge">Numerical methods</text></g></g></g></g></g></svg>