<svg version="1.1" xmlns="http://www.w3.org/2000/svg" xmlns:xlink="http://www.w3.org/1999/xlink" width="4000" height="4000" style="width: 4000px; height: 4000px;"><defs><clipPath id="NgCQEwrleZeU"><path fill="none" stroke="none" d=" M 48 27 L 3970 27 L 3970 3955 L 48 3955 L 48 27 Z"/></clipPath><clipPath id="TAQnbLCMxGKr"><path fill="none" stroke="none" d=" M 48 27 L 3970 27 L 3970 3955 L 48 3955 L 48 27 Z"/></clipPath></defs><g><g transform="scale(1,1) translate(0.5,0.5)"><rect fill="#FFFFFF" stroke="none" x="0" y="0" width="4000" height="4000"/><rect fill="#ffffff" stroke="none" x="0" y="0" width="4000" height="4000"/><rect fill="#FFFFFF" stroke="none" x="48" y="27" width="3922" height="3928"/><rect fill="#ffffff" stroke="none" x="48" y="27" width="3922" height="3928"/><g><rect fill="none" stroke="#e5e5e5" x="48" y="27" width="3922" height="3928" stroke-linejoin="bevel" stroke-miterlimit="10"/></g><g clip-path="url(#NgCQEwrleZeU)"><g><g><path fill="none" stroke="#e5e5e5" paint-order="fill stroke markers" d=" M 226 3955 L 226 27" stroke-linejoin="bevel" stroke-miterlimit="10"/><path fill="none" stroke="#e5e5e5" paint-order="fill stroke markers" d=" M 1118 3955 L 1118 27" stroke-linejoin="bevel" stroke-miterlimit="10"/><path fill="none" stroke="#e5e5e5" paint-order="fill stroke markers" d=" M 2009 3955 L 2009 27" stroke-linejoin="bevel" stroke-miterlimit="10"/><path fill="none" stroke="#e5e5e5" paint-order="fill stroke markers" d=" M 2900 3955 L 2900 27" stroke-linejoin="bevel" stroke-miterlimit="10"/><path fill="none" stroke="#e5e5e5" paint-order="fill stroke markers" d=" M 3792 3955 L 3792 27" stroke-linejoin="bevel" stroke-miterlimit="10"/></g><g><path fill="none" stroke="#e5e5e5" paint-order="fill stroke markers" d=" M 48 3517 L 3970 3517" stroke-linejoin="bevel" stroke-miterlimit="10"/><path fill="none" stroke="#e5e5e5" paint-order="fill stroke markers" d=" M 48 2424 L 3970 2424" stroke-linejoin="bevel" stroke-miterlimit="10"/><path fill="none" stroke="#e5e5e5" paint-order="fill stroke markers" d=" M 48 1331 L 3970 1331" stroke-linejoin="bevel" stroke-miterlimit="10"/><path fill="none" stroke="#e5e5e5" paint-order="fill stroke markers" d=" M 48 239 L 3970 239" stroke-linejoin="bevel" stroke-miterlimit="10"/></g><g><path fill="none" stroke="none"/><path fill="none" stroke="#FF0000" paint-order="fill stroke markers" d=" M 226.27272727272748 2423.95992006871 L 404.54545454545496 2125.9296550962363 L 582.818181818182 1826.3201713201215 L 761.0909090909095 1532.4676829498908 L 939.3636363636365 1252.5299143993411 L 1117.636363636364 995.1964203934281 L 1295.909090909091 769.366847067839 L 1474.1818181818185 583.8097141193034 L 1652.4545454545455 446.81518556911124 L 1830.7272727272725 365.85564865355445 L 2009 347.26772159983375 L 2187.2727272727275 395.9685683838088 L 2365.545454545455 515.2181404888852 L 2543.818181818181 706.4372412535308 L 2722.09090909091 969.0891852915502 L 2900.363636363636 1300.6303873129245 L 3078.636363636364 1696.532557694507 L 3256.909090909091 2150.3764113647776 L 3435.181818181818 2654.0140215992615 L 3613.454545454546 3197.7942810421027 L 3791.727272727273 3770.843474417552" stroke-linejoin="bevel" stroke-miterlimit="10" stroke-width="2"/></g><g><path fill="none" stroke="none"/><path fill="none" stroke="#00FF00" paint-order="fill stroke markers" d=" M 226.27272727272748 2423.95992006871 L 404.54545454545496 2128.908329045185 L 582.818181818182 1829.0989552480564 L 761.0909090909095 1531.1758318730904 L 939.3636363636365 1242.8306237042652 L 1117.636363636364 972.5507923624386 L 1295.909090909091 729.3247479834531 L 1474.1818181818185 522.3152657123496 L 1652.4545454545455 360.5138184240059 L 1830.7272727272725 252.38936040024873 L 2009 205.54545454545496 L 2187.2727272727275 226.39945616603381 L 2365.545454545455 319.896763199602 L 2543.818181818181 489.27195894546094 L 2722.09090909091 735.8670882245337 L 2900.363636363636 1059.0154570049363 L 3078.636363636364 1455.9974765073775 L 3256.909090909091 1922.0737203138378 L 3435.181818181818 2450.6009679726635 L 3613.454545454546 3033.2445466719287 L 3791.727272727273 3660.337893629177" stroke-linejoin="bevel" stroke-miterlimit="10" stroke-width="2"/></g><g><path fill="none" stroke="none"/><path fill="none" stroke="#0000FF" paint-order="fill stroke markers" d=" M 226.27272727272748 2423.95992006871 L 404.54545454545496 2125.7176168308615 L 582.818181818182 1825.7943837340872 L 761.0909090909095 1531.553710580033 L 939.3636363636365 1251.1886410732 L 1117.636363636364 993.4297753906658 L 1295.909090909091 767.2209429589957 L 1474.1818181818185 581.3752018447376 L 1652.4545454545455 444.2247204056148 L 1830.7272727272725 363.27845247953246 L 2009 344.9013139580529 L 2187.2727272727275 394.0278115711981 L 2365.545454545455 513.9217896651426 L 2543.818181818181 705.9921906519999 L 2722.09090909091 969.6725243190208 L 2900.363636363636 1302.3691646388374 L 3078.636363636364 1699.4806657425847 L 3256.909090909091 2154.4869299727243 L 3435.181818181818 2659.102826829321 L 3613.454545454546 3203.4839446830483 L 3791.727272727273 3776.4545454545455" stroke-linejoin="bevel" stroke-miterlimit="10" stroke-width="2"/></g><g><path fill="none" stroke="none"/><path fill="none" stroke="#FF00FF" paint-order="fill stroke markers" d=" M 226.27272727272748 2423.95992006871 L 404.54545454545496 2125.929877053296 L 582.818181818182 1826.3205874828132 L 761.0909090909095 1532.468278306932 L 939.3636363636365 1252.5306827066634 L 1117.636363636364 995.1973620262174 L 1295.909090909091 769.3679686844903 L 1474.1818181818185 583.8110302547407 L 1652.4545454545455 446.81672240698117 L 1830.7272727272725 365.85745041089194 L 2009 347.26986026739723 L 2187.2727272727275 395.9711581338224 L 2365.545454545455 515.2213591642449 L 2543.818181818181 706.4413636066829 L 2722.09090909091 969.0946375615581 L 2900.363636363636 1300.6378444045167 L 3078.636363636364 1696.5431350890694 L 3256.909090909091 2150.3920980327566 L 3435.181818181818 2654.0388499040073 L 3613.454545454546 3197.838472162324 L 3791.727272727273 3770.9471811112107" stroke-linejoin="bevel" stroke-miterlimit="10" stroke-width="2"/></g></g></g><g clip-path="url(#TAQnbLCMxGKr)"><g><g/><g><path fill="#ffffff" stroke="#e5e5e5" paint-order="fill stroke markers" d=" M 58 37 L 237.96875 37 L 237.96875 146 L 58 146 L 58 37 Z" fill-opacity="0.95" stroke-linejoin="bevel" stroke-miterlimit="10" stroke-opacity="0.5"/><text fill="#444444" stroke="none" font-family="helvetica" font-size="10pt" font-style="normal" font-weight="normal" text-decoration="normal" x="93" y="57" text-anchor="start" dominant-baseline="central">Exact solution</text><g><path fill="none" stroke="#FF0000" paint-order="fill stroke markers" d=" M 68 57 L 88 57" stroke-linejoin="bevel" stroke-miterlimit="10" stroke-width="2"/></g><text fill="#444444" stroke="none" font-family="helvetica" font-size="10pt" font-style="normal" font-weight="normal" text-decoration="normal" x="93" y="80" text-anchor="start" dominant-baseline="central">Euler method</text><g><path fill="none" stroke="#00FF00" paint-order="fill stroke markers" d=" M 68 80 L 88 80" stroke-linejoin="bevel" stroke-miterlimit="10" stroke-width="2"/></g><text fill="#444444" stroke="none" font-family="helvetica" font-size="10pt" font-style="normal" font-weight="normal" text-decoration="normal" x="93" y="103" text-anchor="start" dominant-baseline="central">Improved Euler method</text><g><path fill="none" stroke="#0000FF" paint-order="fill stroke markers" d=" M 68 103 L 88 103" stroke-linejoin="bevel" stroke-miterlimit="10" stroke-width="2"/></g><text fill="#444444" stroke="none" font-family="helvetica" font-size="10pt" font-style="normal" font-weight="normal" text-decoration="normal" x="93" y="126" text-anchor="start" dominant-baseline="central">Runge-Kutta method</text><g><path fill="none" stroke="#FF00FF" paint-order="fill stroke markers" d=" M 68 126 L 88 126" stroke-linejoin="bevel" stroke-miterlimit="10" stroke-width="2"/></g></g></g></g><g><g fill="#444444"><path fill="none" stroke="black" paint-order="fill stroke markers" d=" M 48 3955 L 3970 3955" stroke-linejoin="bevel" stroke-miterlimit="10"/><path fill="none" stroke="black" paint-order="fill stroke markers" d=" M 226 3961 L 226 3953" stroke-linejoin="bevel" stroke-miterlimit="10"/><path fill="none" stroke="black" paint-order="fill stroke markers" d=" M 1118 3961 L 1118 3953" stroke-linejoin="bevel" stroke-miterlimit="10"/><path fill="none" stroke="black" paint-order="fill stroke markers" d=" M 2009 3961 L 2009 3953" stroke-linejoin="bevel" stroke-miterlimit="10"/><path fill="none" stroke="black" paint-order="fill stroke markers" d=" M 2900 3961 L 2900 3953" stroke-linejoin="bevel" stroke-miterlimit="10"/><path fill="none" stroke="black" paint-order="fill stroke markers" d=" M 3792 3961 L 3792 3953" stroke-linejoin="bevel" stroke-miterlimit="10"/><path fill="none" stroke="black" paint-order="fill stroke markers" d=" M 48 3959 L 48 3955" stroke-linejoin="bevel" stroke-miterlimit="10"/><path fill="none" stroke="black" paint-order="fill stroke markers" d=" M 226 3959 L 226 3955" stroke-linejoin="bevel" stroke-miterlimit="10"/><path fill="none" stroke="black" paint-order="fill stroke markers" d=" M 405 3959 L 405 3955" stroke-linejoin="bevel" stroke-miterlimit="10"/><path fill="none" stroke="black" paint-order="fill stroke markers" d=" M 583 3959 L 583 3955" stroke-linejoin="bevel" stroke-miterlimit="10"/><path fill="none" stroke="black" paint-order="fill stroke markers" d=" M 761 3959 L 761 3955" stroke-linejoin="bevel" stroke-miterlimit="10"/><path fill="none" stroke="black" paint-order="fill stroke markers" d=" M 939 3959 L 939 3955" stroke-linejoin="bevel" stroke-miterlimit="10"/><path fill="none" stroke="black" paint-order="fill stroke markers" d=" M 1118 3959 L 1118 3955" stroke-linejoin="bevel" stroke-miterlimit="10"/><path fill="none" stroke="black" paint-order="fill stroke markers" d=" M 1296 3959 L 1296 3955" stroke-linejoin="bevel" stroke-miterlimit="10"/><path fill="none" stroke="black" paint-order="fill stroke markers" d=" M 1474 3959 L 1474 3955" stroke-linejoin="bevel" stroke-miterlimit="10"/><path fill="none" stroke="black" paint-order="fill stroke markers" d=" M 1652 3959 L 1652 3955" stroke-linejoin="bevel" stroke-miterlimit="10"/><path fill="none" stroke="black" paint-order="fill stroke markers" d=" M 1831 3959 L 1831 3955" stroke-linejoin="bevel" stroke-miterlimit="10"/><path fill="none" stroke="black" paint-order="fill stroke markers" d=" M 2009 3959 L 2009 3955" stroke-linejoin="bevel" stroke-miterlimit="10"/><path fill="none" stroke="black" paint-order="fill stroke markers" d=" M 2187 3959 L 2187 3955" stroke-linejoin="bevel" stroke-miterlimit="10"/><path fill="none" stroke="black" paint-order="fill stroke markers" d=" M 2366 3959 L 2366 3955" stroke-linejoin="bevel" stroke-miterlimit="10"/><path fill="none" stroke="black" paint-order="fill stroke markers" d=" M 2544 3959 L 2544 3955" stroke-linejoin="bevel" stroke-miterlimit="10"/><path fill="none" stroke="black" paint-order="fill stroke markers" d=" M 2722 3959 L 2722 3955" stroke-linejoin="bevel" stroke-miterlimit="10"/><path fill="none" stroke="black" paint-order="fill stroke markers" d=" M 2900 3959 L 2900 3955" stroke-linejoin="bevel" stroke-miterlimit="10"/><path fill="none" stroke="black" paint-order="fill stroke markers" d=" M 3079 3959 L 3079 3955" stroke-linejoin="bevel" stroke-miterlimit="10"/><path fill="none" stroke="black" paint-order="fill stroke markers" d=" M 3257 3959 L 3257 3955" stroke-linejoin="bevel" stroke-miterlimit="10"/><path fill="none" stroke="black" paint-order="fill stroke markers" d=" M 3435 3959 L 3435 3955" stroke-linejoin="bevel" stroke-miterlimit="10"/><path fill="none" stroke="black" paint-order="fill stroke markers" d=" M 3613 3959 L 3613 3955" stroke-linejoin="bevel" stroke-miterlimit="10"/><path fill="none" stroke="black" paint-order="fill stroke markers" d=" M 3792 3959 L 3792 3955" stroke-linejoin="bevel" stroke-miterlimit="10"/><path fill="" stroke="black" paint-order="fill stroke markers" d=" M 3970 3959 L 3970 3955" stroke-linejoin="bevel" stroke-miterlimit="10"/><g transform="translate(226,3966) rotate(0,0,0)"><text fill="" stroke="none" font-family="helvetica" font-size="8pt" font-style="normal" font-weight="normal" text-decoration="normal" x="0" y="0" text-anchor="middle" dominant-baseline="hanging">1</text><g transform="rotate(0,0,0) translate(-226,-3966) translate(1118,3966) rotate(0,0,0)"><text fill="" stroke="none" font-family="helvetica" font-size="8pt" font-style="normal" font-weight="normal" text-decoration="normal" x="0" y="0" text-anchor="middle" dominant-baseline="hanging">1.5</text><g transform="rotate(0,0,0) translate(-1118,-3966) translate(2009,3966) rotate(0,0,0)"><text fill="" stroke="none" font-family="helvetica" font-size="8pt" font-style="normal" font-weight="normal" text-decoration="normal" x="0" y="0" text-anchor="middle" dominant-baseline="hanging">2</text><g transform="rotate(0,0,0) translate(-2009,-3966) translate(2900,3966) rotate(0,0,0)"><text fill="" stroke="none" font-family="helvetica" font-size="8pt" font-style="normal" font-weight="normal" text-decoration="normal" x="0" y="0" text-anchor="middle" dominant-baseline="hanging">2.5</text><g transform="rotate(0,0,0) translate(-2900,-3966) translate(3792,3966) rotate(0,0,0)"><text fill="" stroke="none" font-family="helvetica" font-size="8pt" font-style="normal" font-weight="normal" text-decoration="normal" x="0" y="0" text-anchor="middle" dominant-baseline="hanging">3</text><g transform="rotate(0,0,0) translate(-3792,-3966) translate(2009,3984) rotate(0,0,0)"><text fill="" stroke="none" font-family="helvetica" font-size="10pt" font-style="italic" font-weight="normal" text-decoration="normal" x="0" y="0" text-anchor="middle" dominant-baseline="hanging">x</text><g transform="rotate(0,0,0) translate(-2009,-3984)"/></g></g></g></g></g></g></g><g fill="#444444"><path fill="none" stroke="black" paint-order="fill stroke markers" d=" M 48 3955 L 48 27" stroke-linejoin="bevel" stroke-miterlimit="10"/><path fill="none" stroke="black" paint-order="fill stroke markers" d=" M 42 3517 L 50 3517" stroke-linejoin="bevel" stroke-miterlimit="10"/><path fill="none" stroke="black" paint-order="fill stroke markers" d=" M 42 2424 L 50 2424" stroke-linejoin="bevel" stroke-miterlimit="10"/><path fill="none" stroke="black" paint-order="fill stroke markers" d=" M 42 1331 L 50 1331" stroke-linejoin="bevel" stroke-miterlimit="10"/><path fill="none" stroke="black" paint-order="fill stroke markers" d=" M 42 239 L 50 239" stroke-linejoin="bevel" stroke-miterlimit="10"/><path fill="none" stroke="black" paint-order="fill stroke markers" d=" M 44 3735 L 48 3735" stroke-linejoin="bevel" stroke-miterlimit="10"/><path fill="none" stroke="black" paint-order="fill stroke markers" d=" M 44 3954 L 48 3954" stroke-linejoin="bevel" stroke-miterlimit="10"/><path fill="none" stroke="black" paint-order="fill stroke markers" d=" M 44 3517 L 48 3517" stroke-linejoin="bevel" stroke-miterlimit="10"/><path fill="none" stroke="black" paint-order="fill stroke markers" d=" M 44 3298 L 48 3298" stroke-linejoin="bevel" stroke-miterlimit="10"/><path fill="none" stroke="black" paint-order="fill stroke markers" d=" M 44 3080 L 48 3080" stroke-linejoin="bevel" stroke-miterlimit="10"/><path fill="none" stroke="black" paint-order="fill stroke markers" d=" M 44 2861 L 48 2861" stroke-linejoin="bevel" stroke-miterlimit="10"/><path fill="none" stroke="black" paint-order="fill stroke markers" d=" M 44 2642 L 48 2642" stroke-linejoin="bevel" stroke-miterlimit="10"/><path fill="none" stroke="black" paint-order="fill stroke markers" d=" M 44 2424 L 48 2424" stroke-linejoin="bevel" stroke-miterlimit="10"/><path fill="none" stroke="black" paint-order="fill stroke markers" d=" M 44 2205 L 48 2205" stroke-linejoin="bevel" stroke-miterlimit="10"/><path fill="none" stroke="black" paint-order="fill stroke markers" d=" M 44 1987 L 48 1987" stroke-linejoin="bevel" stroke-miterlimit="10"/><path fill="none" stroke="black" paint-order="fill stroke markers" d=" M 44 1768 L 48 1768" stroke-linejoin="bevel" stroke-miterlimit="10"/><path fill="none" stroke="black" paint-order="fill stroke markers" d=" M 44 1550 L 48 1550" stroke-linejoin="bevel" stroke-miterlimit="10"/><path fill="none" stroke="black" paint-order="fill stroke markers" d=" M 44 1331 L 48 1331" stroke-linejoin="bevel" stroke-miterlimit="10"/><path fill="none" stroke="black" paint-order="fill stroke markers" d=" M 44 1113 L 48 1113" stroke-linejoin="bevel" stroke-miterlimit="10"/><path fill="none" stroke="black" paint-order="fill stroke markers" d=" M 44 894 L 48 894" stroke-linejoin="bevel" stroke-miterlimit="10"/><path fill="none" stroke="black" paint-order="fill stroke markers" d=" M 44 676 L 48 676" stroke-linejoin="bevel" stroke-miterlimit="10"/><path fill="none" stroke="black" paint-order="fill stroke markers" d=" M 44 457 L 48 457" stroke-linejoin="bevel" stroke-miterlimit="10"/><path fill="" stroke="black" paint-order="fill stroke markers" d=" M 44 239 L 48 239" stroke-linejoin="bevel" stroke-miterlimit="10"/><g transform="translate(37,3517) rotate(0,0,0)"><text fill="" stroke="none" font-family="helvetica" font-size="8pt" font-style="normal" font-weight="normal" text-decoration="normal" x="0" y="0" text-anchor="end" dominant-baseline="central">0.5</text><g transform="rotate(0,0,0) translate(-37,-3517) translate(37,2424) rotate(0,0,0)"><text fill="" stroke="none" font-family="helvetica" font-size="8pt" font-style="normal" font-weight="normal" text-decoration="normal" x="0" y="0" text-anchor="end" dominant-baseline="central">1</text><g transform="rotate(0,0,0) translate(-37,-2424) translate(37,1331) rotate(0,0,0)"><text fill="" stroke="none" font-family="helvetica" font-size="8pt" font-style="normal" font-weight="normal" text-decoration="normal" x="0" y="0" text-anchor="end" dominant-baseline="central">1.5</text><g transform="rotate(0,0,0) translate(-37,-1331) translate(37,239) rotate(0,0,0)"><text fill="" stroke="none" font-family="helvetica" font-size="8pt" font-style="normal" font-weight="normal" text-decoration="normal" x="0" y="0" text-anchor="end" dominant-baseline="central">2</text><g transform="rotate(0,0,0) translate(-37,-239) translate(15,1991) rotate(-90,0,0)"><text fill="" stroke="none" font-family="helvetica" font-size="10pt" font-style="italic" font-weight="normal" text-decoration="normal" x="0" y="0" text-anchor="middle" dominant-baseline="alphabetic">y</text><g transform="rotate(90,0,0) translate(-15,-1991)"/></g></g></g></g></g></g><g fill="#444444"><path fill="" stroke="none" d=""/><g transform="translate(48,22)"><path fill="none" stroke="none"/><text fill="" stroke="none" font-family="helvetica" font-size="10pt" font-style="normal" font-weight="bold" text-decoration="normal" x="0" y="0" text-anchor="start" dominant-baseline="text-after-edge">Numerical methods</text></g></g></g></g></g></svg>