<svg version="1.1" xmlns="http://www.w3.org/2000/svg" xmlns:xlink="http://www.w3.org/1999/xlink" width="2500" height="2500" style="width: 2500px; height: 2500px;"><defs><clipPath id="wpRkGblkhiDd"><path fill="none" stroke="none" d=" M 48 27 L 2470 27 L 2470 2455 L 48 2455 L 48 27 Z"/></clipPath><clipPath id="WdudtbQXiLOd"><path fill="none" stroke="none" d=" M 48 27 L 2470 27 L 2470 2455 L 48 2455 L 48 27 Z"/></clipPath></defs><g><g transform="scale(1,1) translate(0.5,0.5)"><rect fill="#FFFFFF" stroke="none" x="0" y="0" width="2500" height="2500"/><rect fill="#ffffff" stroke="none" x="0" y="0" width="2500" height="2500"/><rect fill="#FFFFFF" stroke="none" x="48" y="27" width="2422" height="2428"/><rect fill="#ffffff" stroke="none" x="48" y="27" width="2422" height="2428"/><g><rect fill="none" stroke="#e5e5e5" x="48" y="27" width="2422" height="2428" stroke-linejoin="bevel" stroke-miterlimit="10"/></g><g clip-path="url(#wpRkGblkhiDd)"><g><g><path fill="none" stroke="#e5e5e5" paint-order="fill stroke markers" d=" M 158 2455 L 158 27" stroke-linejoin="bevel" stroke-miterlimit="10"/><path fill="none" stroke="#e5e5e5" paint-order="fill stroke markers" d=" M 709 2455 L 709 27" stroke-linejoin="bevel" stroke-miterlimit="10"/><path fill="none" stroke="#e5e5e5" paint-order="fill stroke markers" d=" M 1259 2455 L 1259 27" stroke-linejoin="bevel" stroke-miterlimit="10"/><path fill="none" stroke="#e5e5e5" paint-order="fill stroke markers" d=" M 1809 2455 L 1809 27" stroke-linejoin="bevel" stroke-miterlimit="10"/><path fill="none" stroke="#e5e5e5" paint-order="fill stroke markers" d=" M 2360 2455 L 2360 27" stroke-linejoin="bevel" stroke-miterlimit="10"/></g><g><path fill="none" stroke="#e5e5e5" paint-order="fill stroke markers" d=" M 48 2184 L 2470 2184" stroke-linejoin="bevel" stroke-miterlimit="10"/><path fill="none" stroke="#e5e5e5" paint-order="fill stroke markers" d=" M 48 1509 L 2470 1509" stroke-linejoin="bevel" stroke-miterlimit="10"/><path fill="none" stroke="#e5e5e5" paint-order="fill stroke markers" d=" M 48 833 L 2470 833" stroke-linejoin="bevel" stroke-miterlimit="10"/><path fill="none" stroke="#e5e5e5" paint-order="fill stroke markers" d=" M 48 158 L 2470 158" stroke-linejoin="bevel" stroke-miterlimit="10"/></g><g><path fill="none" stroke="none"/><path fill="none" stroke="#FF0000" paint-order="fill stroke markers" d=" M 158.09090909090912 1508.6239017125322 L 268.18181818181836 1324.403564809995 L 378.27272727272714 1139.2070712742502 L 488.3636363636364 957.569127851918 L 598.4545454545454 784.532238330346 L 708.5454545454544 625.4676447849392 L 818.6363636363636 485.8764523117902 L 928.7272727272729 371.1787133099965 L 1038.818181818182 286.49879596787196 L 1148.909090909091 236.45557915754262 L 1259 224.96589308665898 L 1369.090909090909 255.06916599691613 L 1479.1818181818185 328.7804595486282 L 1589.272727272727 446.97800961394387 L 1699.3636363636365 609.3300768553672 L 1809.4545454545455 814.2644043777443 L 1919.5454545454545 1058.9819373936512 L 2029.6363636363635 1339.514747147067 L 2139.7272727272725 1650.8263860598283 L 2249.818181818182 1986.951251112583 L 2359.9090909090905 2341.1680132092197" stroke-linejoin="bevel" stroke-miterlimit="10" stroke-width="2"/></g><g><path fill="none" stroke="none"/><path fill="none" stroke="#00FF00" paint-order="fill stroke markers" d=" M 158.09090909090912 1508.6239017125322 L 268.18181818181836 1326.24476143628 L 378.27272727272714 1140.924710626853 L 488.3636363636364 956.7706007606573 L 598.4545454545454 778.5368519231047 L 708.5454545454544 611.4697871323829 L 818.6363636363636 461.1253788451686 L 928.7272727272729 333.16737911140126 L 1038.818181818182 233.15365354722144 L 1148.909090909091 166.31908529832072 L 1259 137.3636363636365 L 1369.090909090909 150.25404266067426 L 1479.1818181818185 208.04718458468233 L 1589.272727272727 312.7424430548822 L 1699.3636363636365 465.1693712345127 L 1809.4545454545455 664.9158680264723 L 1919.5454545454545 910.3008841547635 L 2029.6363636363635 1198.394855631873 L 2139.7272727272725 1525.0914333598844 L 2249.818181818182 1885.2387370976176 L 2359.9090909090905 2272.861610420479" stroke-linejoin="bevel" stroke-miterlimit="10" stroke-width="2"/></g><g><path fill="none" stroke="none"/><path fill="none" stroke="#0000FF" paint-order="fill stroke markers" d=" M 158.09090909090912 1508.6239017125322 L 268.18181818181836 1324.272498387304 L 378.27272727272714 1138.8820681533512 L 488.3636363636364 957.0041775173929 L 598.4545454545454 783.7031620483017 L 708.5454545454544 624.3756350938224 L 818.6363636363636 484.5500126029633 L 928.7272727272729 369.6738773113598 L 1038.818181818182 284.8975613912503 L 1148.909090909091 234.86254649193052 L 1259 223.50315435085304 L 1369.090909090909 253.86953322170757 L 1479.1818181818185 327.97915104556114 L 1589.272727272727 446.702912144362 L 1699.3636363636365 609.690654034262 L 1809.4545454545455 815.3391883256354 L 1919.5454545454545 1060.8042404335524 L 2029.6363636363635 1342.0555666939342 L 2139.7272727272725 1653.9719102702622 L 2249.818181818182 1990.4681816930859 L 2359.9090909090905 2344.6363636363635" stroke-linejoin="bevel" stroke-miterlimit="10" stroke-width="2"/></g><g><path fill="none" stroke="none"/><path fill="none" stroke="#FF00FF" paint-order="fill stroke markers" d=" M 158.09090909090912 1508.6239017125322 L 268.18181818181836 1324.4037020074852 L 378.27272727272714 1139.2073285153435 L 488.3636363636364 957.5694958577467 L 598.4545454545454 784.5327132412876 L 708.5454545454544 625.4682268329061 L 818.6363636363636 485.8771456125105 L 928.7272727272729 371.17952684788906 L 1038.818181818182 286.4997459277365 L 1148.909090909091 236.45669287109058 L 1259 224.96721505326832 L 1369.090909090909 255.0707667894394 L 1479.1818181818185 328.7824490964317 L 1589.272727272727 446.98055774873364 L 1699.3636363636365 609.3334470467062 L 1809.4545454545455 814.269013801977 L 1919.5454545454545 1058.988475559129 L 2029.6363636363635 1339.5244434886793 L 2139.7272727272725 1650.8417330873037 L 2249.818181818182 1986.9785668050208 L 2359.9090909090905 2341.2321170412474" stroke-linejoin="bevel" stroke-miterlimit="10" stroke-width="2"/></g></g></g><g clip-path="url(#WdudtbQXiLOd)"><g><g/><g><path fill="#ffffff" stroke="#e5e5e5" paint-order="fill stroke markers" d=" M 58 37 L 237.96875 37 L 237.96875 146 L 58 146 L 58 37 Z" fill-opacity="0.95" stroke-linejoin="bevel" stroke-miterlimit="10" stroke-opacity="0.5"/><text fill="#444444" stroke="none" font-family="helvetica" font-size="10pt" font-style="normal" font-weight="normal" text-decoration="normal" x="93" y="57" text-anchor="start" dominant-baseline="central">Exact solution</text><g><path fill="none" stroke="#FF0000" paint-order="fill stroke markers" d=" M 68 57 L 88 57" stroke-linejoin="bevel" stroke-miterlimit="10" stroke-width="2"/></g><text fill="#444444" stroke="none" font-family="helvetica" font-size="10pt" font-style="normal" font-weight="normal" text-decoration="normal" x="93" y="80" text-anchor="start" dominant-baseline="central">Euler method</text><g><path fill="none" stroke="#00FF00" paint-order="fill stroke markers" d=" M 68 80 L 88 80" stroke-linejoin="bevel" stroke-miterlimit="10" stroke-width="2"/></g><text fill="#444444" stroke="none" font-family="helvetica" font-size="10pt" font-style="normal" font-weight="normal" text-decoration="normal" x="93" y="103" text-anchor="start" dominant-baseline="central">Improved Euler method</text><g><path fill="none" stroke="#0000FF" paint-order="fill stroke markers" d=" M 68 103 L 88 103" stroke-linejoin="bevel" stroke-miterlimit="10" stroke-width="2"/></g><text fill="#444444" stroke="none" font-family="helvetica" font-size="10pt" font-style="normal" font-weight="normal" text-decoration="normal" x="93" y="126" text-anchor="start" dominant-baseline="central">Runge-Kutta method</text><g><path fill="none" stroke="#FF00FF" paint-order="fill stroke markers" d=" M 68 126 L 88 126" stroke-linejoin="bevel" stroke-miterlimit="10" stroke-width="2"/></g></g></g></g><g><g fill="#444444"><path fill="none" stroke="black" paint-order="fill stroke markers" d=" M 48 2455 L 2470 2455" stroke-linejoin="bevel" stroke-miterlimit="10"/><path fill="none" stroke="black" paint-order="fill stroke markers" d=" M 158 2461 L 158 2453" stroke-linejoin="bevel" stroke-miterlimit="10"/><path fill="none" stroke="black" paint-order="fill stroke markers" d=" M 709 2461 L 709 2453" stroke-linejoin="bevel" stroke-miterlimit="10"/><path fill="none" stroke="black" paint-order="fill stroke markers" d=" M 1259 2461 L 1259 2453" stroke-linejoin="bevel" stroke-miterlimit="10"/><path fill="none" stroke="black" paint-order="fill stroke markers" d=" M 1809 2461 L 1809 2453" stroke-linejoin="bevel" stroke-miterlimit="10"/><path fill="none" stroke="black" paint-order="fill stroke markers" d=" M 2360 2461 L 2360 2453" stroke-linejoin="bevel" stroke-miterlimit="10"/><path fill="none" stroke="black" paint-order="fill stroke markers" d=" M 48 2459 L 48 2455" stroke-linejoin="bevel" stroke-miterlimit="10"/><path fill="none" stroke="black" paint-order="fill stroke markers" d=" M 158 2459 L 158 2455" stroke-linejoin="bevel" stroke-miterlimit="10"/><path fill="none" stroke="black" paint-order="fill stroke markers" d=" M 268 2459 L 268 2455" stroke-linejoin="bevel" stroke-miterlimit="10"/><path fill="none" stroke="black" paint-order="fill stroke markers" d=" M 378 2459 L 378 2455" stroke-linejoin="bevel" stroke-miterlimit="10"/><path fill="none" stroke="black" paint-order="fill stroke markers" d=" M 488 2459 L 488 2455" stroke-linejoin="bevel" stroke-miterlimit="10"/><path fill="none" stroke="black" paint-order="fill stroke markers" d=" M 598 2459 L 598 2455" stroke-linejoin="bevel" stroke-miterlimit="10"/><path fill="none" stroke="black" paint-order="fill stroke markers" d=" M 709 2459 L 709 2455" stroke-linejoin="bevel" stroke-miterlimit="10"/><path fill="none" stroke="black" paint-order="fill stroke markers" d=" M 819 2459 L 819 2455" stroke-linejoin="bevel" stroke-miterlimit="10"/><path fill="none" stroke="black" paint-order="fill stroke markers" d=" M 929 2459 L 929 2455" stroke-linejoin="bevel" stroke-miterlimit="10"/><path fill="none" stroke="black" paint-order="fill stroke markers" d=" M 1039 2459 L 1039 2455" stroke-linejoin="bevel" stroke-miterlimit="10"/><path fill="none" stroke="black" paint-order="fill stroke markers" d=" M 1149 2459 L 1149 2455" stroke-linejoin="bevel" stroke-miterlimit="10"/><path fill="none" stroke="black" paint-order="fill stroke markers" d=" M 1259 2459 L 1259 2455" stroke-linejoin="bevel" stroke-miterlimit="10"/><path fill="none" stroke="black" paint-order="fill stroke markers" d=" M 1369 2459 L 1369 2455" stroke-linejoin="bevel" stroke-miterlimit="10"/><path fill="none" stroke="black" paint-order="fill stroke markers" d=" M 1479 2459 L 1479 2455" stroke-linejoin="bevel" stroke-miterlimit="10"/><path fill="none" stroke="black" paint-order="fill stroke markers" d=" M 1589 2459 L 1589 2455" stroke-linejoin="bevel" stroke-miterlimit="10"/><path fill="none" stroke="black" paint-order="fill stroke markers" d=" M 1699 2459 L 1699 2455" stroke-linejoin="bevel" stroke-miterlimit="10"/><path fill="none" stroke="black" paint-order="fill stroke markers" d=" M 1809 2459 L 1809 2455" stroke-linejoin="bevel" stroke-miterlimit="10"/><path fill="none" stroke="black" paint-order="fill stroke markers" d=" M 1920 2459 L 1920 2455" stroke-linejoin="bevel" stroke-miterlimit="10"/><path fill="none" stroke="black" paint-order="fill stroke markers" d=" M 2030 2459 L 2030 2455" stroke-linejoin="bevel" stroke-miterlimit="10"/><path fill="none" stroke="black" paint-order="fill stroke markers" d=" M 2140 2459 L 2140 2455" stroke-linejoin="bevel" stroke-miterlimit="10"/><path fill="none" stroke="black" paint-order="fill stroke markers" d=" M 2250 2459 L 2250 2455" stroke-linejoin="bevel" stroke-miterlimit="10"/><path fill="none" stroke="black" paint-order="fill stroke markers" d=" M 2360 2459 L 2360 2455" stroke-linejoin="bevel" stroke-miterlimit="10"/><path fill="" stroke="black" paint-order="fill stroke markers" d=" M 2470 2459 L 2470 2455" stroke-linejoin="bevel" stroke-miterlimit="10"/><g transform="translate(158,2466) rotate(0,0,0)"><text fill="" stroke="none" font-family="helvetica" font-size="8pt" font-style="normal" font-weight="normal" text-decoration="normal" x="0" y="0" text-anchor="middle" dominant-baseline="hanging">1</text><g transform="rotate(0,0,0) translate(-158,-2466) translate(709,2466) rotate(0,0,0)"><text fill="" stroke="none" font-family="helvetica" font-size="8pt" font-style="normal" font-weight="normal" text-decoration="normal" x="0" y="0" text-anchor="middle" dominant-baseline="hanging">1.5</text><g transform="rotate(0,0,0) translate(-709,-2466) translate(1259,2466) rotate(0,0,0)"><text fill="" stroke="none" font-family="helvetica" font-size="8pt" font-style="normal" font-weight="normal" text-decoration="normal" x="0" y="0" text-anchor="middle" dominant-baseline="hanging">2</text><g transform="rotate(0,0,0) translate(-1259,-2466) translate(1809,2466) rotate(0,0,0)"><text fill="" stroke="none" font-family="helvetica" font-size="8pt" font-style="normal" font-weight="normal" text-decoration="normal" x="0" y="0" text-anchor="middle" dominant-baseline="hanging">2.5</text><g transform="rotate(0,0,0) translate(-1809,-2466) translate(2360,2466) rotate(0,0,0)"><text fill="" stroke="none" font-family="helvetica" font-size="8pt" font-style="normal" font-weight="normal" text-decoration="normal" x="0" y="0" text-anchor="middle" dominant-baseline="hanging">3</text><g transform="rotate(0,0,0) translate(-2360,-2466) translate(1259,2484) rotate(0,0,0)"><text fill="" stroke="none" font-family="helvetica" font-size="10pt" font-style="italic" font-weight="normal" text-decoration="normal" x="0" y="0" text-anchor="middle" dominant-baseline="hanging">x</text><g transform="rotate(0,0,0) translate(-1259,-2484)"/></g></g></g></g></g></g></g><g fill="#444444"><path fill="none" stroke="black" paint-order="fill stroke markers" d=" M 48 2455 L 48 27" stroke-linejoin="bevel" stroke-miterlimit="10"/><path fill="none" stroke="black" paint-order="fill stroke markers" d=" M 42 2184 L 50 2184" stroke-linejoin="bevel" stroke-miterlimit="10"/><path fill="none" stroke="black" paint-order="fill stroke markers" d=" M 42 1509 L 50 1509" stroke-linejoin="bevel" stroke-miterlimit="10"/><path fill="none" stroke="black" paint-order="fill stroke markers" d=" M 42 833 L 50 833" stroke-linejoin="bevel" stroke-miterlimit="10"/><path fill="none" stroke="black" paint-order="fill stroke markers" d=" M 42 158 L 50 158" stroke-linejoin="bevel" stroke-miterlimit="10"/><path fill="none" stroke="black" paint-order="fill stroke markers" d=" M 44 2319 L 48 2319" stroke-linejoin="bevel" stroke-miterlimit="10"/><path fill="none" stroke="black" paint-order="fill stroke markers" d=" M 44 2454 L 48 2454" stroke-linejoin="bevel" stroke-miterlimit="10"/><path fill="none" stroke="black" paint-order="fill stroke markers" d=" M 44 2184 L 48 2184" stroke-linejoin="bevel" stroke-miterlimit="10"/><path fill="none" stroke="black" paint-order="fill stroke markers" d=" M 44 2049 L 48 2049" stroke-linejoin="bevel" stroke-miterlimit="10"/><path fill="none" stroke="black" paint-order="fill stroke markers" d=" M 44 1914 L 48 1914" stroke-linejoin="bevel" stroke-miterlimit="10"/><path fill="none" stroke="black" paint-order="fill stroke markers" d=" M 44 1779 L 48 1779" stroke-linejoin="bevel" stroke-miterlimit="10"/><path fill="none" stroke="black" paint-order="fill stroke markers" d=" M 44 1644 L 48 1644" stroke-linejoin="bevel" stroke-miterlimit="10"/><path fill="none" stroke="black" paint-order="fill stroke markers" d=" M 44 1509 L 48 1509" stroke-linejoin="bevel" stroke-miterlimit="10"/><path fill="none" stroke="black" paint-order="fill stroke markers" d=" M 44 1374 L 48 1374" stroke-linejoin="bevel" stroke-miterlimit="10"/><path fill="none" stroke="black" paint-order="fill stroke markers" d=" M 44 1238 L 48 1238" stroke-linejoin="bevel" stroke-miterlimit="10"/><path fill="none" stroke="black" paint-order="fill stroke markers" d=" M 44 1103 L 48 1103" stroke-linejoin="bevel" stroke-miterlimit="10"/><path fill="none" stroke="black" paint-order="fill stroke markers" d=" M 44 968 L 48 968" stroke-linejoin="bevel" stroke-miterlimit="10"/><path fill="none" stroke="black" paint-order="fill stroke markers" d=" M 44 833 L 48 833" stroke-linejoin="bevel" stroke-miterlimit="10"/><path fill="none" stroke="black" paint-order="fill stroke markers" d=" M 44 698 L 48 698" stroke-linejoin="bevel" stroke-miterlimit="10"/><path fill="none" stroke="black" paint-order="fill stroke markers" d=" M 44 563 L 48 563" stroke-linejoin="bevel" stroke-miterlimit="10"/><path fill="none" stroke="black" paint-order="fill stroke markers" d=" M 44 428 L 48 428" stroke-linejoin="bevel" stroke-miterlimit="10"/><path fill="none" stroke="black" paint-order="fill stroke markers" d=" M 44 293 L 48 293" stroke-linejoin="bevel" stroke-miterlimit="10"/><path fill="" stroke="black" paint-order="fill stroke markers" d=" M 44 158 L 48 158" stroke-linejoin="bevel" stroke-miterlimit="10"/><g transform="translate(37,2184) rotate(0,0,0)"><text fill="" stroke="none" font-family="helvetica" font-size="8pt" font-style="normal" font-weight="normal" text-decoration="normal" x="0" y="0" text-anchor="end" dominant-baseline="central">0.5</text><g transform="rotate(0,0,0) translate(-37,-2184) translate(37,1509) rotate(0,0,0)"><text fill="" stroke="none" font-family="helvetica" font-size="8pt" font-style="normal" font-weight="normal" text-decoration="normal" x="0" y="0" text-anchor="end" dominant-baseline="central">1</text><g transform="rotate(0,0,0) translate(-37,-1509) translate(37,833) rotate(0,0,0)"><text fill="" stroke="none" font-family="helvetica" font-size="8pt" font-style="normal" font-weight="normal" text-decoration="normal" x="0" y="0" text-anchor="end" dominant-baseline="central">1.5</text><g transform="rotate(0,0,0) translate(-37,-833) translate(37,158) rotate(0,0,0)"><text fill="" stroke="none" font-family="helvetica" font-size="8pt" font-style="normal" font-weight="normal" text-decoration="normal" x="0" y="0" text-anchor="end" dominant-baseline="central">2</text><g transform="rotate(0,0,0) translate(-37,-158) translate(15,1241) rotate(-90,0,0)"><text fill="" stroke="none" font-family="helvetica" font-size="10pt" font-style="italic" font-weight="normal" text-decoration="normal" x="0" y="0" text-anchor="middle" dominant-baseline="alphabetic">y</text><g transform="rotate(90,0,0) translate(-15,-1241)"/></g></g></g></g></g></g><g fill="#444444"><path fill="" stroke="none" d=""/><g transform="translate(48,22)"><path fill="none" stroke="none"/><text fill="" stroke="none" font-family="helvetica" font-size="10pt" font-style="normal" font-weight="bold" text-decoration="normal" x="0" y="0" text-anchor="start" dominant-baseline="text-after-edge">Numerical methods</text></g></g></g></g></g></svg>